<mxfile host="app.diagrams.net" agent="Mozilla/5.0 (Windows NT 10.0; Win64; x64) AppleWebKit/537.36 (KHTML, like Gecko) Chrome/129.0.0.0 Safari/537.36" version="24.7.17">
  <diagram name="Page-1" id="b7LxUD4wd6-nOMW-zljm">
    <mxGraphModel dx="1008" dy="626" grid="1" gridSize="10" guides="1" tooltips="1" connect="1" arrows="1" fold="1" page="1" pageScale="1" pageWidth="850" pageHeight="1100" math="0" shadow="0">
      <root>
        <mxCell id="0" />
        <mxCell id="1" parent="0" />
        <mxCell id="PTo0EENI0vDvhpu0KRyW-4" style="edgeStyle=orthogonalEdgeStyle;rounded=0;orthogonalLoop=1;jettySize=auto;html=1;exitX=1;exitY=0.5;exitDx=0;exitDy=0;entryX=0;entryY=0.5;entryDx=0;entryDy=0;flowAnimation=0;" edge="1" parent="1" source="PTo0EENI0vDvhpu0KRyW-1" target="PTo0EENI0vDvhpu0KRyW-2">
          <mxGeometry relative="1" as="geometry" />
        </mxCell>
        <mxCell id="PTo0EENI0vDvhpu0KRyW-1" value="m1" style="ellipse;whiteSpace=wrap;html=1;aspect=fixed;fillColor=#f8cecc;strokeColor=#b85450;" vertex="1" parent="1">
          <mxGeometry x="75" y="310" width="40" height="40" as="geometry" />
        </mxCell>
        <mxCell id="PTo0EENI0vDvhpu0KRyW-5" style="edgeStyle=orthogonalEdgeStyle;rounded=0;orthogonalLoop=1;jettySize=auto;html=1;exitX=1;exitY=0.5;exitDx=0;exitDy=0;entryX=0;entryY=0.5;entryDx=0;entryDy=0;" edge="1" parent="1" source="PTo0EENI0vDvhpu0KRyW-2" target="PTo0EENI0vDvhpu0KRyW-3">
          <mxGeometry relative="1" as="geometry" />
        </mxCell>
        <mxCell id="PTo0EENI0vDvhpu0KRyW-2" value="m2" style="ellipse;whiteSpace=wrap;html=1;aspect=fixed;fillColor=#f8cecc;strokeColor=#b85450;" vertex="1" parent="1">
          <mxGeometry x="165" y="310" width="40" height="40" as="geometry" />
        </mxCell>
        <mxCell id="PTo0EENI0vDvhpu0KRyW-3" value="m3" style="ellipse;whiteSpace=wrap;html=1;aspect=fixed;fillColor=#f8cecc;strokeColor=#b85450;" vertex="1" parent="1">
          <mxGeometry x="245" y="310" width="40" height="40" as="geometry" />
        </mxCell>
        <mxCell id="PTo0EENI0vDvhpu0KRyW-6" value="" style="endArrow=classic;html=1;rounded=0;flowAnimation=1;" edge="1" parent="1">
          <mxGeometry width="50" height="50" relative="1" as="geometry">
            <mxPoint x="75" y="350" as="sourcePoint" />
            <mxPoint x="775" y="350" as="targetPoint" />
          </mxGeometry>
        </mxCell>
        <mxCell id="PTo0EENI0vDvhpu0KRyW-7" value="&lt;font color=&quot;#ea6b66&quot;&gt;Main Branch&lt;/font&gt;" style="text;html=1;align=center;verticalAlign=middle;resizable=0;points=[];autosize=1;strokeColor=none;fillColor=none;" vertex="1" parent="1">
          <mxGeometry x="75" y="350" width="90" height="30" as="geometry" />
        </mxCell>
        <mxCell id="PTo0EENI0vDvhpu0KRyW-11" style="edgeStyle=orthogonalEdgeStyle;rounded=0;orthogonalLoop=1;jettySize=auto;html=1;exitX=1;exitY=0.5;exitDx=0;exitDy=0;entryX=0;entryY=0.5;entryDx=0;entryDy=0;flowAnimation=1;" edge="1" parent="1" source="PTo0EENI0vDvhpu0KRyW-8" target="PTo0EENI0vDvhpu0KRyW-9">
          <mxGeometry relative="1" as="geometry" />
        </mxCell>
        <mxCell id="PTo0EENI0vDvhpu0KRyW-8" value="f1" style="ellipse;whiteSpace=wrap;html=1;aspect=fixed;fillColor=#dae8fc;strokeColor=#6c8ebf;" vertex="1" parent="1">
          <mxGeometry x="295" y="520" width="40" height="40" as="geometry" />
        </mxCell>
        <mxCell id="PTo0EENI0vDvhpu0KRyW-12" style="edgeStyle=orthogonalEdgeStyle;rounded=0;orthogonalLoop=1;jettySize=auto;html=1;exitX=1;exitY=0.5;exitDx=0;exitDy=0;entryX=0;entryY=0.5;entryDx=0;entryDy=0;flowAnimation=1;" edge="1" parent="1" source="PTo0EENI0vDvhpu0KRyW-9" target="PTo0EENI0vDvhpu0KRyW-10">
          <mxGeometry relative="1" as="geometry" />
        </mxCell>
        <mxCell id="PTo0EENI0vDvhpu0KRyW-9" value="f2" style="ellipse;whiteSpace=wrap;html=1;aspect=fixed;fillColor=#dae8fc;strokeColor=#6c8ebf;" vertex="1" parent="1">
          <mxGeometry x="385" y="520" width="40" height="40" as="geometry" />
        </mxCell>
        <mxCell id="PTo0EENI0vDvhpu0KRyW-10" value="f3" style="ellipse;whiteSpace=wrap;html=1;aspect=fixed;fillColor=#dae8fc;strokeColor=#6c8ebf;" vertex="1" parent="1">
          <mxGeometry x="475" y="520" width="40" height="40" as="geometry" />
        </mxCell>
        <mxCell id="PTo0EENI0vDvhpu0KRyW-13" value="" style="endArrow=classic;html=1;rounded=0;flowAnimation=1;" edge="1" parent="1">
          <mxGeometry width="50" height="50" relative="1" as="geometry">
            <mxPoint x="305" y="560" as="sourcePoint" />
            <mxPoint x="695" y="560" as="targetPoint" />
          </mxGeometry>
        </mxCell>
        <mxCell id="PTo0EENI0vDvhpu0KRyW-14" value="" style="endArrow=classic;html=1;rounded=0;exitX=0.5;exitY=1;exitDx=0;exitDy=0;flowAnimation=1;" edge="1" parent="1" source="PTo0EENI0vDvhpu0KRyW-3" target="PTo0EENI0vDvhpu0KRyW-8">
          <mxGeometry width="50" height="50" relative="1" as="geometry">
            <mxPoint x="405" y="530" as="sourcePoint" />
            <mxPoint x="455" y="480" as="targetPoint" />
          </mxGeometry>
        </mxCell>
        <mxCell id="PTo0EENI0vDvhpu0KRyW-15" value="&lt;font color=&quot;#66b2ff&quot;&gt;Feature Branch&lt;/font&gt;" style="text;html=1;align=center;verticalAlign=middle;resizable=0;points=[];autosize=1;strokeColor=none;fillColor=none;" vertex="1" parent="1">
          <mxGeometry x="280" y="558" width="110" height="30" as="geometry" />
        </mxCell>
        <mxCell id="PTo0EENI0vDvhpu0KRyW-16" value="" style="endArrow=classic;html=1;rounded=0;exitX=1;exitY=0;exitDx=0;exitDy=0;flowAnimation=1;" edge="1" parent="1" source="PTo0EENI0vDvhpu0KRyW-10">
          <mxGeometry width="50" height="50" relative="1" as="geometry">
            <mxPoint x="405" y="530" as="sourcePoint" />
            <mxPoint x="595" y="350" as="targetPoint" />
          </mxGeometry>
        </mxCell>
        <mxCell id="PTo0EENI0vDvhpu0KRyW-20" value="&lt;font color=&quot;#0066cc&quot; style=&quot;font-size: 16px;&quot;&gt;git merge feature&lt;/font&gt;" style="edgeLabel;html=1;align=center;verticalAlign=middle;resizable=0;points=[];" vertex="1" connectable="0" parent="PTo0EENI0vDvhpu0KRyW-16">
          <mxGeometry x="0.0369" y="-2" relative="1" as="geometry">
            <mxPoint as="offset" />
          </mxGeometry>
        </mxCell>
        <mxCell id="PTo0EENI0vDvhpu0KRyW-17" value="merge&lt;div&gt;commit&lt;/div&gt;" style="ellipse;whiteSpace=wrap;html=1;aspect=fixed;fillColor=#f8cecc;strokeColor=#b85450;" vertex="1" parent="1">
          <mxGeometry x="575" y="300" width="50" height="50" as="geometry" />
        </mxCell>
      </root>
    </mxGraphModel>
  </diagram>
</mxfile>
